<?xml version="1.0" encoding="utf-8"?>
<svg id="Capa_1" data-name="Capa 1" viewBox="0 0 166 166" xmlns="http://www.w3.org/2000/svg">
  <defs>
    <style>.cls-1{fill:#194271;}</style>
  </defs>
  <title>icon-clinic</title>
  <path class="cls-1" d="M127.59,83.06v-.13a18.18,18.18,0,0,0-.8-5.35l12.62-10.09a10.51,10.51,0,0,0-13.13-16.41L109.44,64.55h-.24A18.4,18.4,0,0,0,92.56,75.15a24.52,24.52,0,0,0-13.09-5.81L64.13,67.42l-1.26-6.28a20.84,20.84,0,0,0,7.64-9.73h1.92A10.51,10.51,0,0,0,82.93,40.9a10.36,10.36,0,0,0-2.28-6.46c.8-2.5,2.28-7.7,2.28-11.93A10.51,10.51,0,0,0,73.81,12.1l-1.33-1.78A22,22,0,0,0,47.3,2.83L30,9.11A15.44,15.44,0,0,0,19.89,23.57a15.9,15.9,0,0,0,.47,3.78l1.89,7a10.4,10.4,0,0,0-2.36,6.54A10.53,10.53,0,0,0,30.4,51.41h1.92A20.83,20.83,0,0,0,40,61.14L38.7,67.42,23.36,69.34A24.94,24.94,0,0,0,1.51,94.1v28.23A10.51,10.51,0,0,0,12,132.83h5.26v31.52H164.36v-42A39.42,39.42,0,0,0,127.59,83.06Zm15.76,60.28H127.59v-2.63a7.9,7.9,0,0,0-7.88-7.88H101.32v-10.5h21V111.82h5.25v-7.67a18.4,18.4,0,0,1,15.76,18.18Zm-57.79-2.63a2.63,2.63,0,0,1,2.63-2.62h31.52a2.63,2.63,0,0,1,2.63,2.62v2.63H85.56Zm15.76-28.89h15.76v5.25H101.32Zm28.24-56.64a5.39,5.39,0,0,1,7.38.82,5.27,5.27,0,0,1-.82,7.39l-11.64,9.32a18.57,18.57,0,0,0-8.33-6.8ZM96.07,82.93a13.14,13.14,0,1,1,26.27,0v23.64H96.07ZM66.5,73,65,84.68l-9.16-3.05,7.24-9Zm.67-42.62H35.65v-.12a27.66,27.66,0,0,0,15.76-6.76,27.72,27.72,0,0,0,15.76,6.76ZM35.65,40.9V35.65H67.17V40.9c0,.91,0,1.78-.13,2.63H56.22a2.65,2.65,0,0,1-1.86-.77l-3-2.95-2.94,2.95a2.65,2.65,0,0,1-1.86.77H35.79c-.08-.85-.14-1.72-.14-2.63Zm36.78,5.25H72a30.63,30.63,0,0,0,.45-5.25V35.65a5.25,5.25,0,0,1,0,10.5ZM31.82,14.05,49.1,7.76a16.8,16.8,0,0,1,19.18,5.71l2.83,3.79h1.32a5.26,5.26,0,0,1,5.25,5.25,34.18,34.18,0,0,1-1.52,8.6,10.27,10.27,0,0,0-3.73-.72V25.14H69.8a22.59,22.59,0,0,1-16.08-6.66l-2.31-2.3-2.3,2.3A22.59,22.59,0,0,1,33,25.14H30.4v5.25a10.28,10.28,0,0,0-3.6.68l-1.35-5a10.29,10.29,0,0,1-.3-2.46,10.15,10.15,0,0,1,6.67-9.52ZM30.4,46.15a5.25,5.25,0,0,1,0-10.5V40.9a30.63,30.63,0,0,0,.45,5.25Zm6.48,2.63h9.73a7.78,7.78,0,0,0,4.8-1.63,7.83,7.83,0,0,0,4.81,1.63H66c-2.25,6.56-7.46,10.51-14.54,10.51S39.13,55.34,36.88,48.78ZM51.41,64.54a21.29,21.29,0,0,0,6.58-1l1.12,5.58-7.7,9.61-7.69-9.61,1.12-5.57A21.57,21.57,0,0,0,51.41,64.54Zm-11.64,8,7.24,9-9.16,3.05L36.33,73Zm-33,49.75V94.1A19.71,19.71,0,0,1,24,74.55l7.1-.89,2.34,18,15.33-5.11v9.49H33v5.25h5.25v10.51H22.52V93.43H17.27v23.64H48.79v10.51H12A5.26,5.26,0,0,1,6.76,122.33Zm42,21a5.26,5.26,0,0,1-5.26-5.25v-5.26H54v5.26A5.25,5.25,0,0,1,48.79,143.34ZM54,127.58V117.07h5.25a5.26,5.26,0,1,1,0,10.51ZM43.53,111.82V101.31H54v10.51Zm-21,21H38.28v5.26a10.51,10.51,0,0,0,10.51,10.5V159.1H22.52ZM62.13,159.1H54v-12a10.45,10.45,0,0,0,5.25-9v-5.26a10.51,10.51,0,1,0,0-21V101.31h5.26V96.06H54V86.57l15.33,5.11,2.34-18,7.11.89a19.58,19.58,0,0,1,12.12,6.32,17.53,17.53,0,0,0-.12,2.06v28.89h5.25v21H88.19a7.67,7.67,0,0,0-2.63.49V93.43H80.31v49.91A18.39,18.39,0,0,0,62.13,159.1Zm5.31,0a13.16,13.16,0,0,1,12.87-10.51h63V159.1Zm91.67,0H148.6V122.33a23.67,23.67,0,0,0-21-23.49V88.31a34.17,34.17,0,0,1,31.52,34Z" style="fill: rgb(255, 255, 255);"/>
</svg>