<?xml version="1.0" encoding="utf-8"?>
<svg version="1.1" id="Capa_1" x="0px" y="0px" viewBox="0 0 250 250" style="enable-background:new 0 0 250 250;" xmlns="http://www.w3.org/2000/svg">
  <style type="text/css">
	.st0{fill:#194271;}
	.st1{fill:#FCFCFC;}
	.st2{fill:#FDFDFD;}
</style>
  <g>
    <path class="st0" d="M131.28,243.34c-4.88,0-9.76,0-14.64,0c-0.17-0.48-0.56-0.48-0.97-0.48c-2.96,0-5.86-0.59-8.76-1.05 c-5.27-0.83-10.46-2.09-15.53-3.74c-6.08-1.99-11.97-4.42-17.67-7.35c-7.84-4.02-15.1-8.87-21.87-14.49 c-4.54-3.77-8.76-7.85-12.67-12.26c-4.91-5.53-9.28-11.45-13.13-17.79c-3.47-5.71-6.39-11.68-8.9-17.85 c-2.12-5.21-3.76-10.6-4.98-16.09c-1.13-5.09-2.03-10.23-2.34-15.45c-0.05-0.74,0.3-1.55-0.42-2.16c0-4.4,0-8.8,0-13.2 c0.57-0.8,0.72-1.6,0-2.4c0-0.08,0-0.16,0-0.24c0.33-0.13,0.48-0.35,0.49-0.72c0.01-2.28,0.54-4.5,0.84-6.74 c0.58-4.32,1.53-8.55,2.69-12.76c1.13-4.12,2.5-8.15,4.08-12.12c2.05-5.18,4.45-10.16,7.24-14.98c3.25-5.63,6.94-10.95,11.05-15.99 c5.77-7.07,12.26-13.4,19.48-18.98c5.3-4.1,10.92-7.71,16.83-10.89c6.9-3.72,14.1-6.68,21.58-8.92c4.99-1.49,10.08-2.65,15.28-3.32 c1.37-0.18,2.76-0.36,4.13-0.66c0.39,0.05,0.79,0.08,1.14-0.16c0.72,0.05,1.48,0.33,2.11-0.29c0.34,0.42,0.8,0.26,1.22,0.21 c3.92-0.45,7.85-0.31,11.79-0.27c1.47,0.02,2.9,0.46,4.38,0.27c0.73,0.18,1.47,0.22,2.21,0.11c0.6,0.22,1.22,0.34,1.87,0.28 c1.09,0.2,2.2,0.34,3.29,0.5c3.24,0.48,6.44,1.11,9.63,1.87c3.18,0.76,6.29,1.67,9.39,2.69c3.56,1.17,7.03,2.54,10.46,4.07 c4.1,1.82,8.07,3.86,11.93,6.15c5.18,3.07,10.09,6.49,14.75,10.31c5.85,4.79,11.21,10.07,16.06,15.86 c3.59,4.3,6.84,8.83,9.83,13.57c3.03,4.81,5.66,9.81,7.97,14.99c2.12,4.75,3.88,9.64,5.26,14.66c1.27,4.62,2.32,9.27,3.01,14.02 c0.21,1.44,0.18,2.94,0.66,4.34c-0.04,0.31-0.09,0.62,0.13,0.9c-0.11,0.58-0.08,1.16,0.08,1.74c-0.01,0.39-0.05,0.79-0.01,1.18 c0.5,4.37,0.38,8.75,0.28,13.14c-0.03,1.15-0.45,2.27-0.23,3.44c-0.18,0.66-0.23,1.32-0.08,1.99c-0.26,0.68-0.32,1.38-0.32,2.1 c-0.2,1.37-0.4,2.75-0.62,4.12c-0.34,2.1-0.54,4.24-1.07,6.29c-1.04,4.07-2.03,8.15-3.4,12.14c-1.3,3.78-2.71,7.51-4.36,11.14 c-2.18,4.82-4.71,9.46-7.53,13.94c-3.78,6-8.08,11.62-12.86,16.85c-4.04,4.42-8.41,8.49-13.05,12.29 c-5.14,4.22-10.62,7.93-16.37,11.23c-5.03,2.89-10.31,5.29-15.72,7.41c-5.02,1.97-10.16,3.55-15.38,4.75 c-5.11,1.18-10.31,2.06-15.57,2.35C133.03,242.99,132.07,242.64,131.28,243.34z M123.98,234.26c5.2,0,9.37-0.27,13.55-0.77 c3.86-0.47,7.68-1.13,11.44-2.03c4.21-1.01,8.35-2.29,12.4-3.86c5.27-2.04,10.35-4.42,15.28-7.19c6.66-3.75,12.83-8.16,18.5-13.24 c5.85-5.24,11.15-10.99,15.78-17.39c5.06-7.01,9.31-14.44,12.62-22.43c2.08-5.02,3.72-10.15,5.06-15.41 c1.12-4.39,1.79-8.86,2.38-13.33c0.3-2.24,0.42-4.53,0.48-6.8c0.22-7.58-0.28-15.09-1.69-22.56c-0.66-3.52-1.45-6.99-2.4-10.43 c-0.83-3.01-1.86-5.97-3.06-8.87c-1.61-3.89-3.34-7.73-5.33-11.45c-2.43-4.57-5.25-8.88-8.27-13.07 c-3.29-4.57-7.02-8.78-10.98-12.76c-2.96-2.98-6.11-5.79-9.42-8.4c-3.5-2.76-7.15-5.34-10.96-7.65c-4.83-2.94-9.9-5.47-15.15-7.62 c-4.14-1.69-8.36-3.14-12.69-4.24c-2.73-0.69-5.48-1.31-8.26-1.81c-3.4-0.61-6.79-1.16-10.23-1.33c-0.52-0.02-1.04-0.02-1.56-0.09 c-3.98-0.55-7.99-0.43-11.96-0.16c-4.42,0.3-8.83,0.77-13.21,1.61c-4.08,0.78-8.1,1.74-12.06,2.93c-4.31,1.29-8.49,2.98-12.58,4.87 c-4.01,1.86-7.94,3.89-11.68,6.25c-6.36,4.01-12.33,8.53-17.79,13.74c-4.55,4.34-8.77,8.97-12.53,14 C35.1,70.86,31.16,77.41,28,84.38c-1.33,2.93-2.61,5.89-3.66,8.92c-1.1,3.2-2.08,6.44-2.86,9.75c-0.64,2.68-1.26,5.37-1.69,8.08 c-0.52,3.23-0.91,6.48-1.12,9.75c-0.39,5.96-0.32,11.92,0.35,17.84c0.6,5.34,1.57,10.63,3.01,15.83c0.97,3.51,2.03,6.99,3.37,10.37 c1.99,5.03,4.3,9.9,6.98,14.62c3.1,5.46,6.61,10.63,10.63,15.42c5.88,7,12.45,13.31,19.9,18.7c5.12,3.7,10.47,6.98,16.1,9.81 c4.59,2.3,9.34,4.22,14.21,5.83c4.83,1.6,9.8,2.82,14.82,3.61C113.64,233.78,119.28,234.43,123.98,234.26z" style="fill: rgb(255, 255, 255);"/>
    <path class="st1" d="M240.7,136.32c-0.15,0-0.3,0-0.46-0.01c-0.22-1.16,0.21-2.28,0.23-3.44c0.1-4.38,0.22-8.77-0.28-13.14 c-0.04-0.39,0-0.79,0.01-1.18c0.16,0,0.33,0,0.49,0C240.7,124.48,240.7,130.4,240.7,136.32z"/>
    <path class="st1" d="M116.29,12.27c0.12-0.08,0.23-0.17,0.35-0.25c5.36,0,10.72,0,16.08,0c0.08,0.13,0.16,0.13,0.24,0 c0.24,0,0.48,0,0.72,0c0,0.16,0,0.31,0,0.47c-1.47,0.19-2.91-0.25-4.38-0.27c-3.93-0.05-7.86-0.18-11.79,0.27 C117.1,12.53,116.64,12.69,116.29,12.27z"/>
    <path class="st1" d="M133.92,242.92c0,0.14,0,0.28,0,0.42c-0.88,0-1.76,0-2.64,0C132.07,242.64,133.03,242.99,133.92,242.92z"/>
    <path class="st1" d="M9.38,119.04c0.72,0.8,0.57,1.6,0,2.4C9.38,120.64,9.38,119.84,9.38,119.04z"/>
    <path class="st1" d="M9.81,136.8c-0.14,0-0.28,0-0.42,0c0-0.72,0-1.44,0-2.16C10.11,135.24,9.75,136.06,9.81,136.8z"/>
    <path class="st2" d="M132.96,12.02c-0.08,0.13-0.16,0.13-0.24,0C132.8,12.02,132.88,12.02,132.96,12.02z"/>
    <path class="st1" d="M135.89,12.6c0.64-0.02,1.34-0.44,1.87,0.28C137.11,12.94,136.49,12.82,135.89,12.6z"/>
    <path class="st1" d="M240.17,138.3c-0.06,0.71,0.41,1.49-0.32,2.1C239.84,139.68,239.91,138.98,240.17,138.3z"/>
    <path class="st1" d="M113.04,12.72c0.33-0.38,0.75-0.18,1.14-0.16C113.83,12.8,113.44,12.77,113.04,12.72z"/>
    <path class="st1" d="M240,115.92c0.33,0.26,0.25,0.57,0.13,0.9C239.91,116.55,239.96,116.23,240,115.92z"/>
    <path class="st0" d="M126.97,31.68c2.28,0.1,4.58,0.02,6.82,0.35c2.57,0.38,5.15,0.75,7.71,1.25c2.96,0.58,5.89,1.3,8.76,2.17 c4.25,1.29,8.38,2.93,12.43,4.79c6.39,2.93,12.31,6.66,18,10.74c2.47,1.77,4.75,3.82,7.05,5.82c1.24,1.08,1.96,2.44,1.6,4.22 c-0.44,2.16-1.75,3.39-3.89,3.68c-1.51,0.2-2.85-0.4-3.95-1.38c-3.73-3.34-7.74-6.34-11.94-9.02c-3.24-2.07-6.6-3.98-10.13-5.59 c-3.02-1.38-6.1-2.58-9.2-3.75c-2.35-0.89-4.78-1.47-7.21-2.08c-4.37-1.09-8.81-1.67-13.32-1.98c-2.67-0.18-5.33-0.4-7.98-0.24 c-3.43,0.2-6.86,0.55-10.26,1.19c-2.27,0.43-4.54,0.81-6.79,1.34c-3.66,0.86-7.21,2.07-10.71,3.42c-3.74,1.44-7.35,3.2-10.84,5.18 c-4.18,2.36-8.14,5.04-11.89,8.04c-4.84,3.86-9.24,8.18-13.19,12.93c-3.15,3.79-5.97,7.83-8.43,12.1 c-2.11,3.66-4.06,7.39-5.48,11.39c-0.73,2.06-1.68,4.06-2.29,6.15c-0.65,2.23-1.28,4.46-1.8,6.73c-2.1,9.08-2.72,18.23-1.71,27.5 c0.33,3,0.74,6.01,1.41,8.93c0.97,4.28,2.24,8.49,3.83,12.6c2.02,5.24,4.5,10.23,7.47,14.99c5,8.01,11.36,14.82,18.52,20.91 c5.02,4.27,10.46,7.93,16.31,11c4.91,2.57,9.97,4.71,15.28,6.27c3.36,0.98,6.74,1.79,10.21,2.37c5.66,0.95,11.33,1.41,17.05,1.14 c3.3-0.16,6.6-0.44,9.85-1.15c1.43-0.31,2.95-0.26,4.36-0.63c1.81-0.47,3.63-0.95,5.43-1.45c2.43-0.68,4.77-1.6,7.14-2.45 c2.74-0.98,5.32-2.27,7.94-3.49c6.05-2.84,11.55-6.56,16.66-10.77c5.91-4.87,11.12-10.46,15.65-16.68 c3.89-5.35,7.1-11.07,9.76-17.08c1.15-2.6,2.16-5.3,2.95-8.07c0.84-2.95,1.79-5.88,2.28-8.91c0.53-3.29,1.05-6.58,1.39-9.91 c0.32-3.11,0.39-6.21,0.24-9.29c-0.16-3.11-0.54-6.21-1.17-9.29c-0.44-2.14-0.88-4.29-1.44-6.4c-0.7-2.63-1.57-5.22-2.53-7.78 c-1.38-3.7-3.21-7.22-4.54-10.94c-0.87-2.43,0.18-4.55,2.31-5.54c2.37-1.11,4.83-0.16,5.97,2.22c1.25,2.61,2.38,5.29,3.49,7.97 c1.62,3.91,3.02,7.9,4.09,12c0.89,3.43,1.59,6.9,2.15,10.42c1.06,6.69,0.89,13.38,0.27,20.07c-0.23,2.5-0.71,5-1.17,7.5 c-0.61,3.37-1.46,6.66-2.4,9.93c-1,3.48-2.33,6.87-3.79,10.19c-3.19,7.25-7.28,13.96-12.05,20.29 c-4.62,6.13-9.98,11.56-15.84,16.45c-4.15,3.47-8.7,6.42-13.36,9.2c-3.44,2.05-7.03,3.81-10.7,5.36 c-3.58,1.51-7.27,2.77-11.03,3.81c-3.55,0.98-7.12,1.8-10.74,2.36c-1.92,0.29-3.86,0.56-5.8,0.77c-4.19,0.44-8.37,0.49-12.57,0.34 c-4.55-0.16-9.04-0.79-13.53-1.56c-2.47-0.42-4.91-0.97-7.3-1.62c-3.69-1.01-7.31-2.3-10.87-3.76c-4.62-1.88-9.06-4.1-13.32-6.68 c-6.36-3.84-12.19-8.36-17.54-13.51c-5.64-5.43-10.59-11.45-14.79-18.03c-2.87-4.49-5.42-9.19-7.43-14.16 c-1.53-3.77-2.95-7.57-4.06-11.49c-1.25-4.43-2.07-8.92-2.73-13.47c-0.82-5.65-1-11.3-0.7-16.96c0.26-4.85,0.94-9.67,1.96-14.44 c1.04-4.9,2.49-9.67,4.28-14.33c2.19-5.71,5.02-11.11,8.27-16.3c4.02-6.41,8.7-12.26,14.03-17.59 c5.94-5.94,12.58-10.98,19.79-15.29c4.7-2.81,9.63-5.13,14.73-7.08c3.62-1.38,7.33-2.51,11.13-3.37c3.43-0.77,6.87-1.39,10.36-1.88 C117.97,31.71,122.46,31.56,126.97,31.68z" style="fill: rgb(255, 255, 255);"/>
    <path class="st0" d="M48.21,127.86c0.03-6.01,0.74-11.85,2.09-17.62c0.96-4.08,2.19-8.06,3.8-11.91c1.34-3.21,2.67-6.47,4.77-9.28 c1.78-2.38,3.85-2.4,5.91-1.24c6.05,3.41,12.02,6.97,18.04,10.43c6.44,3.7,12.91,7.32,19.34,11.04c1.39,0.8,2.77,1.62,3.5,3.27 c0.67,1.5,0.31,2.77-0.34,4.04c-2.14,4.13-3.22,8.49-2.79,13.15c0.27,2.88,1.07,5.62,2.4,8.21c0.95,1.85,1.83,3.77,0.27,5.79 c-0.51,0.66-1.06,1.27-1.75,1.66c-7.28,4.21-14.58,8.37-21.87,12.56c-4.78,2.75-9.54,5.54-14.32,8.28 c-1.13,0.65-2.17,1.44-3.47,1.78c-2.27,0.59-3.94,0.02-5.22-1.99c-1.6-2.51-2.86-5.2-4.03-7.93c-1.97-4.59-3.49-9.33-4.52-14.22 c-0.65-3.09-1.1-6.18-1.42-9.32C48.34,132.3,48.33,130.04,48.21,127.86z M57.26,127.82c0.12,2.29,0.19,4.73,0.41,7.16 c0.22,2.41,0.85,4.75,1.25,7.13c0.33,1.94,1.05,3.75,1.5,5.63c0.77,3.19,2.25,6.08,3.48,9.08c0.29,0.7,0.49,0.66,1.07,0.35 c3.33-1.79,6.55-3.77,9.84-5.62c6.72-3.77,13.33-7.74,19.99-11.6c0.61-0.35,0.79-0.59,0.51-1.36c-1.08-2.94-1.76-5.99-1.9-9.12 c-0.09-2-0.02-4,0.3-6.03c0.35-2.21,0.86-4.35,1.56-6.44c0.28-0.82,0.16-1.11-0.5-1.48c-2.96-1.67-5.92-3.34-8.85-5.06 c-6.99-4.09-13.98-8.19-21.04-12.15c-0.52-0.29-0.64-0.48-0.93,0.22c-1.32,3.13-2.63,6.24-3.66,9.5 c-1.21,3.82-1.87,7.73-2.56,11.63C57.28,122.28,57.4,125,57.26,127.82z" style="fill: rgb(255, 255, 255);"/>
    <path class="st0" d="M120.48,177.39c0-7.28,0.07-14.56-0.03-21.83c-0.04-3.03,1.97-5.2,5.16-5.32c7.82-0.28,13.89-3.8,18.28-10.25 c0.53-0.78,1.07-1.58,1.79-2.19c1.49-1.24,3.29-1.33,5.12-0.29c5.61,3.21,11.22,6.42,16.83,9.65c7.29,4.2,14.58,8.4,21.86,12.62 c2.58,1.5,3.11,4.33,1.55,6.94c-2.48,4.15-5.29,8.04-8.48,11.67c-6.64,7.53-14.46,13.52-23.45,17.99 c-3.71,1.84-7.52,3.36-11.49,4.57c-5.21,1.6-10.47,2.73-15.92,3.19c-2.03,0.17-4.05,0.31-6.08,0.34c-3.19,0.06-5.13-1.86-5.13-5.03 C120.47,192.1,120.48,184.74,120.48,177.39z M129.48,177.1c0,5.6,0.02,11.19-0.01,16.79c-0.01,0.99,0.05,1.44,1.33,1.33 c2.54-0.22,5.04-0.62,7.53-1.14c2.03-0.43,4.1-0.78,6.04-1.48c3.37-1.23,6.79-2.35,10.02-3.97c5.53-2.77,10.65-6.09,15.28-10.2 c4.03-3.58,7.69-7.49,10.82-11.9c0.62-0.87,0.56-1.25-0.38-1.78c-5.09-2.88-10.15-5.82-15.21-8.75c-4.74-2.74-9.46-5.51-14.2-8.25 c-0.49-0.29-0.91-0.36-1.41,0.19c-1.77,1.92-3.61,3.76-5.73,5.31c-3.88,2.85-8.21,4.66-12.91,5.54c-1.02,0.19-1.17,0.53-1.17,1.4 C129.49,165.83,129.48,171.47,129.48,177.1z" style="fill: rgb(255, 255, 255);"/>
    <path class="st0" d="M120.48,78.03c0-7.28,0.07-14.55-0.03-21.83c-0.05-3.08,2.11-5.36,5.4-5.3c3.84,0.07,7.66,0.43,11.42,1.05 c4.84,0.8,9.56,2.16,14.21,3.84c7.32,2.64,13.99,6.41,20.17,11.07c5,3.77,9.44,8.16,13.35,13.07c2.29,2.88,4.37,5.92,6.23,9.08 c1.35,2.28,0.97,5.11-1.71,6.68c-7.65,4.48-15.33,8.91-23.01,13.33c-5.14,2.96-10.29,5.91-15.46,8.82 c-2.58,1.45-4.89,0.93-6.55-1.5c-1.47-2.16-3.04-4.21-5.06-5.88c-2.55-2.11-5.39-3.61-8.61-4.46c-1.89-0.49-3.77-0.78-5.71-0.86 c-2.78-0.11-4.62-2.03-4.63-4.82C120.47,92.9,120.48,85.47,120.48,78.03z M130.05,60.18c-0.78,0.01-0.56,0.64-0.56,1.09 c-0.01,11.4-0.01,22.79-0.01,34.19c0,0.08,0.01,0.16,0,0.24c-0.04,0.56,0.14,0.85,0.77,0.94c2.09,0.32,4.1,0.93,6.09,1.7 c2.42,0.94,4.65,2.16,6.79,3.61c2.32,1.57,4.23,3.55,6.1,5.58c0.49,0.53,0.85,0.55,1.42,0.22c4.04-2.38,8.06-4.77,12.13-7.11 c5.83-3.35,11.69-6.64,17.52-9.99c0.55-0.31,0.85-0.67,0.28-1.53c-2.51-3.76-5.61-7-8.79-10.15c-3.37-3.34-7.17-6.14-11.18-8.66 c-5.5-3.46-11.39-6-17.66-7.72C138.72,61.42,134.46,60.47,130.05,60.18z" style="fill: rgb(255, 255, 255);"/>
    <path class="st0" d="M125,114.21c7.58,0.18,13.48,5.92,13.46,13.5c-0.01,7.81-5.92,13.51-13.42,13.53 c-7.75,0.02-13.58-5.81-13.57-13.56C111.49,120.18,117.19,114.42,125,114.21z M125.04,132.22c2.35-0.02,4.43-2.11,4.4-4.49 c-0.03-2.52-2.04-4.47-4.52-4.45c-2.4,0.01-4.43,2.1-4.43,4.46C120.5,130.2,122.58,132.25,125.04,132.22z" style="fill: rgb(255, 255, 255);"/>
    <path class="st0" d="M192.72,73.59c0.17-2.49,1.85-4.43,4.5-4.53c2.31-0.09,4.64,2.21,4.53,4.5c-0.13,2.55-1.96,4.44-4.56,4.45 C194.77,78.02,192.85,76.02,192.72,73.59z" style="fill: rgb(255, 255, 255);"/>
  </g>
</svg>