<svg xmlns="http://www.w3.org/2000/svg" viewBox="0 0 469.41 105.06"><defs><style>.cls-1{fill:#0a1e5b;}.cls-2{fill:#fff;}</style></defs><title>logo-nuevo</title><g id="Capa_2" data-name="Capa 2"><g id="Capa_1-2" data-name="Capa 1"><rect class="cls-1" width="99.39" height="105.06"/><path class="cls-1" d="M130.93,15.57H138V41.38h16.09v6.46H130.93Z"/><path class="cls-1" d="M167.76,15.34h6.55l13.83,32.5h-7.42l-2.95-7.24H164.12l-3,7.24h-7.24Zm7.47,19-4.29-10.47-4.28,10.47Z"/><path class="cls-1" d="M190.35,15.57h15c3.68,0,6.59,1,8.43,2.86A7.36,7.36,0,0,1,216,23.91V24a7.5,7.5,0,0,1-4.24,7c3.74,1.43,6,3.6,6,7.93V39c0,5.91-4.79,8.86-12.08,8.86H190.35Zm13.47,13c3.13,0,5.11-1,5.11-3.41v-.09c0-2.12-1.66-3.32-4.65-3.32h-7v6.82Zm1.88,13c3.14,0,5-1.1,5-3.5V38c0-2.17-1.61-3.51-5.26-3.51h-8.2v7.1Z"/><path class="cls-1" d="M219.44,31.79V31.7c0-9.17,7.24-16.69,17.2-16.69s17.1,7.43,17.1,16.6v.09c0,9.17-7.24,16.69-17.19,16.69S219.44,41,219.44,31.79Zm26.88,0V31.7c0-5.53-4.06-10.14-9.77-10.14s-9.68,4.52-9.68,10.05v.09c0,5.53,4,10.14,9.77,10.14S246.32,37.33,246.32,31.79Z"/><path class="cls-1" d="M257.29,15.57H272c4.11,0,7.29,1.15,9.41,3.27a10.12,10.12,0,0,1,2.76,7.38v.09a10,10,0,0,1-6.91,10l7.88,11.53h-8.29L270,37.51h-5.58V47.84h-7.1Zm14.29,15.67c3.46,0,5.44-1.84,5.44-4.56v-.1c0-3-2.12-4.61-5.57-4.61h-7.06v9.27Z"/><path class="cls-1" d="M298.92,15.34h6.55l13.83,32.5h-7.42l-2.95-7.24H295.28l-2.95,7.24h-7.24Zm7.47,19L302.1,23.86l-4.28,10.47Z"/><path class="cls-1" d="M324.88,22.11h-9.82V15.57H341.8v6.54H332V47.84h-7.1Z"/><path class="cls-1" d="M341.66,31.79V31.7c0-9.17,7.24-16.69,17.19-16.69S376,22.44,376,31.61v.09c0,9.17-7.24,16.69-17.2,16.69S341.66,41,341.66,31.79Zm26.87,0V31.7c0-5.53-4-10.14-9.77-10.14s-9.68,4.52-9.68,10.05v.09c0,5.53,4.06,10.14,9.77,10.14S368.53,37.33,368.53,31.79Z"/><path class="cls-1" d="M379.51,15.57h14.75c4.1,0,7.28,1.15,9.4,3.27a10.12,10.12,0,0,1,2.77,7.38v.09a10,10,0,0,1-6.91,10l7.88,11.53h-8.3l-6.91-10.33h-5.58V47.84h-7.1ZM393.8,31.24c3.46,0,5.44-1.84,5.44-4.56v-.1c0-3-2.12-4.61-5.58-4.61h-7.05v9.27Z"/><path class="cls-1" d="M410.4,15.57h7.1V47.84h-7.1Z"/><path class="cls-1" d="M421.37,31.79V31.7c0-9.17,7.24-16.69,17.2-16.69s17.1,7.43,17.1,16.6v.09c0,9.17-7.24,16.69-17.2,16.69S421.37,41,421.37,31.79Zm26.87,0V31.7c0-5.53-4.05-10.14-9.77-10.14s-9.68,4.52-9.68,10.05v.09a9.81,9.81,0,0,0,9.78,10.14C444.28,41.84,448.24,37.33,448.24,31.79Z"/><path class="cls-1" d="M129.5,73v-.09a16.41,16.41,0,0,1,16.83-16.69c6.08,0,9.72,2,12.72,5l-4.52,5.21c-2.49-2.26-5-3.64-8.25-3.64-5.44,0-9.36,4.52-9.36,10v.09c0,5.53,3.83,10.14,9.36,10.14,3.69,0,5.95-1.47,8.48-3.78l4.52,4.57a16.5,16.5,0,0,1-13.23,5.76A16.29,16.29,0,0,1,129.5,73Z"/><path class="cls-1" d="M159.84,73v-.09c0-9.17,7.23-16.69,17.19-16.69s17.1,7.43,17.1,16.6v.09c0,9.17-7.23,16.69-17.19,16.69S159.84,82.21,159.84,73Zm26.87,0v-.09c0-5.53-4.06-10.14-9.77-10.14s-9.68,4.52-9.68,10v.09c0,5.53,4.05,10.14,9.77,10.14S186.71,78.57,186.71,73Z"/><path class="cls-1" d="M197.69,56.81h14.75c4.1,0,7.28,1.15,9.4,3.27a10.12,10.12,0,0,1,2.77,7.38v.09a10,10,0,0,1-6.92,10l7.88,11.53h-8.29l-6.92-10.33h-5.58V89.08h-7.09ZM212,72.48c3.45,0,5.44-1.84,5.44-4.56v-.1c0-3-2.13-4.6-5.58-4.6h-7.06v9.26Z"/><path class="cls-1" d="M228.25,56.81H243c4.1,0,7.28,1.15,9.41,3.27a10.16,10.16,0,0,1,2.76,7.38v.09a10,10,0,0,1-6.91,10l7.88,11.53h-8.3l-6.91-10.33h-5.58V89.08h-7.1Zm14.29,15.67c3.46,0,5.44-1.84,5.44-4.56v-.1c0-3-2.12-4.6-5.58-4.6h-7.05v9.26Z"/><path class="cls-1" d="M258.82,56.81h24.34v6.31H265.87v6.55h15.21V76H265.87v6.78h17.52v6.32H258.82Z"/><path class="cls-1" d="M285.51,73v-.09a16.56,16.56,0,0,1,16.92-16.69c5.8,0,9.31,1.57,12.67,4.43l-4.47,5.39a11.89,11.89,0,0,0-8.43-3.27c-5.17,0-9.27,4.56-9.27,10v.09c0,5.9,4.06,10.24,9.77,10.24a11.36,11.36,0,0,0,6.69-1.94V76.63h-7.15V70.5h14v14a21,21,0,0,1-13.79,5.12C292.42,89.63,285.51,82.58,285.51,73Z"/><path class="cls-1" d="M320.64,56.81h7.1V89.08h-7.1Z"/><path class="cls-1" d="M333,56.81h12.58c10.15,0,17.15,7,17.15,16v.09c0,9.08-7,16.14-17.15,16.14H333Zm12.58,25.86c5.81,0,9.73-3.92,9.73-9.64v-.09c0-5.71-3.92-9.72-9.73-9.72h-5.48V82.67Z"/><path class="cls-1" d="M364.9,73v-.09c0-9.17,7.23-16.69,17.19-16.69s17.1,7.43,17.1,16.6v.09c0,9.17-7.23,16.69-17.19,16.69S364.9,82.21,364.9,73Zm26.87,0v-.09c0-5.53-4-10.14-9.77-10.14s-9.68,4.52-9.68,10v.09c0,5.53,4.06,10.14,9.77,10.14S391.77,78.57,391.77,73Z"/><path class="cls-1" d="M402.75,56.81H417.5c4.1,0,7.28,1.15,9.4,3.27a10.12,10.12,0,0,1,2.77,7.38v.09a10,10,0,0,1-6.92,10l7.88,11.53h-8.29l-6.92-10.33h-5.57V89.08h-7.1ZM417,72.48c3.45,0,5.44-1.84,5.44-4.56v-.1c0-3-2.12-4.6-5.58-4.6h-7v9.26Z"/><path class="cls-1" d="M444.37,56.58h6.55l13.83,32.5h-7.42l-2.95-7.24H440.73l-3,7.24h-7.23Zm7.47,19L447.56,65.1l-4.29,10.47Z"/><path class="cls-1" d="M460.24,19.6v0a4.59,4.59,0,1,1,9.17,0v0a4.59,4.59,0,1,1-9.17,0Zm8.64,0v0a4.06,4.06,0,1,0-8.11,0v0a4.06,4.06,0,1,0,8.11,0Zm-5.95-2.47h2.24c1.11,0,1.92.5,1.92,1.58a1.46,1.46,0,0,1-1,1.47l1.21,1.72h-1.4l-1-1.51h-.74v1.51h-1.16Zm2.16,2.32c.53,0,.82-.27.82-.66s-.32-.66-.82-.66h-1v1.32Z"/><polygon class="cls-2" points="83.57 89.23 15.82 89.23 15.82 15.82 31.59 15.82 31.59 73.47 83.57 73.47 83.57 89.23"/><path class="cls-2" d="M70.34,49.76a13.5,13.5,0,0,1-12.55,9.52c-7.37,0-13.37-6.5-13.37-14.48s6-14.49,13.37-14.49a13.49,13.49,0,0,1,12.56,9.57h15C83.2,25.51,71.67,14.5,57.79,14.5c-15.42,0-28,13.59-28,30.3s12.54,30.29,28,30.29c13.86,0,25.39-11,27.58-25.33Z"/></g></g></svg>