<?xml version="1.0" encoding="utf-8"?>
<svg viewBox="0 0 878 1064.603" xmlns="http://www.w3.org/2000/svg">
  <path d="M 378.325 855.077 L 221.194 697.944 C 206.375 682.832 197.23 662.11 197.23 639.253 C 197.23 592.943 234.772 555.4 281.082 555.4 C 303.939 555.4 324.661 564.546 339.787 579.377 L 339.773 579.364 L 342.694 582.285 L 342.694 346.5 C 342.681 345.976 342.674 345.357 342.674 344.737 C 342.674 302.767 374.034 268.121 414.599 262.952 L 415.009 262.91 L 415.769 262.91 C 417.957 262.698 420.5 262.577 423.071 262.577 C 467.43 262.577 503.389 298.537 503.389 342.896 L 503.389 343.247 L 503.389 343.229 L 503.389 499.368 L 638.761 518.586 C 678.036 524.386 707.837 557.858 707.837 598.291 C 707.837 598.465 707.837 598.64 707.835 598.815 L 707.835 598.788 C 707.811 688.467 686.338 773.125 648.271 847.921 L 649.713 844.795 L 649.216 845.701 L 646.588 850.374 L 608.415 828.907 L 610.781 824.702 C 644.335 758.854 663.995 681.095 663.995 598.745 L 663.995 598.495 L 663.997 598.212 C 663.997 579.835 650.45 564.621 632.797 562.011 L 632.598 561.986 L 459.548 537.395 L 459.548 343.082 L 459.548 342.845 C 459.548 322.683 443.203 306.338 423.039 306.338 C 422 306.338 420.973 306.381 419.956 306.466 L 420.089 306.457 C 401.017 309.09 386.489 325.283 386.489 344.869 C 386.489 345.196 386.493 345.522 386.501 345.847 L 386.501 345.799 L 386.501 688.043 L 308.813 610.324 C 301.563 603.074 291.547 598.59 280.483 598.59 C 258.356 598.59 240.417 616.528 240.417 638.655 C 240.417 649.718 244.902 659.736 252.151 666.986 L 409.284 824.117 L 378.325 855.077 Z M 274.934 461.984 C 244.454 431.578 225.596 389.532 225.596 343.082 C 225.596 296.632 244.454 254.588 274.93 224.186 L 274.933 224.183 L 305.893 255.2 C 283.364 277.674 269.425 308.75 269.425 343.083 C 269.425 377.415 283.363 408.492 305.891 430.963 L 305.893 430.966 L 274.934 461.984 Z M 201.333 504.595 C 159.993 463.262 134.424 406.16 134.424 343.083 C 134.424 280.007 159.995 222.903 201.333 181.57 L 232.291 212.528 C 198.877 245.934 178.21 292.087 178.21 343.068 C 178.21 394.049 198.877 440.202 232.291 473.607 L 201.333 504.595 Z M 571.09 461.984 L 540.131 430.967 C 562.66 408.491 576.598 377.415 576.598 343.083 C 576.598 308.75 562.661 277.674 540.133 255.202 L 540.131 255.199 L 571.09 224.181 C 601.57 254.587 620.427 296.632 620.427 343.083 C 620.427 389.533 601.57 431.576 571.094 461.979 L 571.09 461.982 L 571.09 461.984 Z M 644.69 504.596 L 613.731 473.638 C 647.145 440.232 667.813 394.079 667.813 343.098 C 667.813 292.117 647.146 245.963 613.733 212.558 L 613.731 212.558 L 644.69 181.569 C 686.038 222.903 711.613 280.013 711.613 343.097 C 711.613 406.18 686.039 463.29 644.692 504.623 L 644.69 504.596 Z" style="fill: rgb(255, 255, 255);"/>
</svg>